<svg version="1.1" id="Layer_1" xmlns:x="ns_extend;" xmlns:i="ns_ai;" xmlns:graph="ns_graphs;" xmlns="http://www.w3.org/2000/svg" xmlns:xlink="http://www.w3.org/1999/xlink" x="0px" y="0px" viewBox="0 0 43.2 43" style="enable-background:new 0 0 43.2 43;" xml:space="preserve">
 <metadata>
  <sfw xmlns="ns_sfw;">
   <slices>
   </slices>
   <sliceSourceBounds bottomLeftOrigin="true" height="43" width="43.2" x="0" y="49.6">
   </sliceSourceBounds>
  </sfw>
 </metadata>
 <g>
  <g>
   <path d="M18.4,18.2l8.8-2.7l-8.8-2.8C18.3,12.6,18,12.8,18,13v4.9C18,18.1,18.2,18.3,18.4,18.2z">
   </path>
   <path d="M18,24.5v4.9c0,0.2,0.2,0.4,0.4,0.3l8.8-2.7l-8.8-2.8C18.3,24.1,18,24.3,18,24.5z">
   </path>
   <path d="M21.6,0C9.7,0,0,9.6,0,21.5C0,33.4,9.7,43.1,21.6,43c11.9,0,21.6-9.6,21.6-21.5S33.5,0,21.6,0z M33.4,29.3
			c0,0.2-0.2,0.5-0.4,0.5l-14.6,4.4c-0.2,0.1-0.4,0.3-0.4,0.5v1.5c0,0.3-0.2,0.5-0.5,0.5h-3.1c-0.3,0-0.5-0.2-0.5-0.5V6.3
			c0-0.3,0.2-0.5,0.5-0.5h3.1C17.8,5.7,18,6,18,6.3v1.6c0,0.2,0.2,0.5,0.4,0.5L33,13.5v0c0.2,0.1,0.4,0.2,0.3,0.5v3.5
			c0,0.2-0.2,0.5-0.4,0.5l-9.6,2.9c-0.5,0.1-0.5,0.8,0,1l9.6,3.5c0.2,0.1,0.4,0.3,0.4,0.5V29.3z">
   </path>
  </g>
 </g>
</svg>