<?xml version="1.0" encoding="UTF-8"?>
<svg id="Layer_2" data-name="Layer 2" xmlns="http://www.w3.org/2000/svg" viewBox="0 0 63.14 62.75">
  <defs>
    <style>
      .cls-1 {
        fill: #fff;
      }
    </style>
  </defs>
  <g id="Layer_1-2" data-name="Layer 1">
    <g>
      <polygon class="cls-1" points="52.57 21.8 55.21 19.88 57.84 21.8 56.84 18.69 59.51 16.77 56.22 16.77 55.21 13.62 54.2 16.78 50.9 16.77 53.58 18.69 52.57 21.8"/>
      <polygon class="cls-1" points="4.31 33.54 6.94 35.47 5.94 32.36 8.62 30.43 5.32 30.43 4.31 27.28 3.3 30.44 0 30.43 2.68 32.36 1.67 35.47 4.31 33.54"/>
      <polygon class="cls-1" points="8.98 44.09 7.97 40.94 6.96 44.1 3.66 44.09 6.34 46.02 5.33 49.13 7.97 47.2 10.6 49.13 9.6 46.02 12.28 44.09 8.98 44.09"/>
      <polygon class="cls-1" points="7.97 13.66 6.96 16.82 3.66 16.81 6.34 18.74 5.33 21.85 7.97 19.92 10.6 21.85 9.6 18.74 12.28 16.81 8.98 16.81 7.97 13.66"/>
      <polygon class="cls-1" points="15.31 11.84 17.95 9.92 20.58 11.84 19.58 8.73 22.26 6.81 18.96 6.81 17.95 3.66 16.94 6.82 13.64 6.81 16.31 8.73 15.31 11.84"/>
      <polygon class="cls-1" points="18.98 54.09 17.97 50.94 16.96 54.1 13.66 54.09 16.33 56.01 15.33 59.12 17.97 57.2 20.6 59.12 19.6 56.01 22.28 54.09 18.98 54.09"/>
      <polygon class="cls-1" points="28.95 8.18 31.59 6.26 34.22 8.18 33.22 5.07 35.89 3.15 32.6 3.15 31.59 0 30.58 3.15 27.28 3.15 29.95 5.07 28.95 8.18"/>
      <polygon class="cls-1" points="32.6 57.71 31.59 54.56 30.58 57.72 27.28 57.71 29.95 59.64 28.95 62.75 31.59 60.82 34.22 62.75 33.22 59.64 35.9 57.71 32.6 57.71"/>
      <polygon class="cls-1" points="46.22 54.09 45.21 50.94 44.2 54.1 40.9 54.09 43.57 56.01 42.57 59.12 45.21 57.2 47.84 59.12 46.84 56.01 49.52 54.09 46.22 54.09"/>
      <polygon class="cls-1" points="45.25 3.66 44.24 6.82 40.94 6.81 43.61 8.74 42.61 11.85 45.25 9.92 47.88 11.85 46.88 8.74 49.56 6.81 46.26 6.81 45.25 3.66"/>
      <polygon class="cls-1" points="56.22 44.09 55.21 40.94 54.2 44.1 50.9 44.09 53.58 46.02 52.57 49.13 55.21 47.2 57.84 49.13 56.84 46.02 59.51 44.09 56.22 44.09"/>
      <polygon class="cls-1" points="59.84 30.4 58.83 27.24 57.82 30.4 54.52 30.4 57.2 32.32 56.19 35.43 58.83 33.5 61.46 35.43 60.46 32.32 63.14 30.4 59.84 30.4"/>
    </g>
    <g>
      <g>
        <path class="cls-1" d="M18.97,43.09h25.19v-9.14.16h-25.19M18.97,34.34v-.39,8.91M43.93,42.86h-24.72v-4.89h24.72v4.89ZM20.72,35.5v-.26h.33s.07-.03.07-.07v-.26h.3v1.78h-.3v-1.19h-.4ZM21.75,35.81c0-.57.26-.92.69-.92s.7.35.7.92-.26.92-.7.92-.69-.36-.69-.92ZM23.37,35.81c0-.57.26-.92.69-.92s.7.35.7.92-.26.92-.7.92-.69-.36-.69-.92ZM25.49,36.69h-.27l1.15-1.78h.28l-1.15,1.78ZM26.88,36.29c0,.25-.15.43-.41.43s-.41-.18-.41-.43.15-.43.41-.43.41.18.41.43ZM25.39,35.75c-.26,0-.4-.18-.4-.43s.15-.43.4-.43.41.18.41.43-.15.43-.41.43ZM28.45,36.46c.24,0,.41-.16.45-.4h.32c-.07.45-.37.67-.77.67-.48,0-.83-.36-.83-.92s.35-.92.83-.92c.45,0,.71.28.75.66h-.32c-.04-.23-.19-.39-.43-.39-.31,0-.5.27-.5.66s.2.66.5.66ZM29.42,35.81c0-.57.35-.92.85-.92s.85.36.85.92-.34.92-.85.92-.85-.36-.85-.92ZM32.46,36.69h-.28l-.48-1.37v1.37h-.29v-1.78h.44l.48,1.4.47-1.4h.43v1.78h-.29v-1.38l-.48,1.38ZM33.6,36.69v-1.78h.8c.34,0,.59.22.59.57s-.25.56-.59.56h-.49v.65h-.31ZM36.37,36.44v.26h-1.13v-1.78h.31v1.52h.82ZM36.61,36.69v-1.78h.31v1.78h-.31ZM37.14,36.69l.65-1.78h.39l.65,1.78h-.33l-.15-.43h-.74l-.15.43h-.32ZM39.04,36.69v-1.78h.36l.8,1.33v-1.33h.3v1.78h-.35l-.81-1.34v1.34h-.3ZM40.75,35.17v-.26h1.44v.26h-.57v1.52h-.31v-1.52h-.57ZM19.21,33.95v.39h24.72v-.39h-24.72Z"/>
        <path class="cls-1" d="M25.39,35.09c-.11,0-.17.1-.17.24s.05.23.17.23.16-.1.16-.23-.05-.24-.16-.24Z"/>
        <path class="cls-1" d="M34.67,35.48c0-.19-.12-.31-.32-.31h-.44v.62h.44c.2,0,.32-.12.32-.31Z"/>
        <path class="cls-1" d="M26.47,36.52c.12,0,.16-.1.16-.23s-.05-.23-.16-.23-.16.1-.16.23.05.23.16.23Z"/>
        <path class="cls-1" d="M30.8,35.81c0-.4-.2-.66-.53-.66s-.53.26-.53.66.2.66.53.66.53-.26.53-.66Z"/>
        <path class="cls-1" d="M24.44,35.81c0-.41-.11-.66-.38-.66s-.38.25-.38.66.12.66.38.66.38-.26.38-.66Z"/>
        <polygon class="cls-1" points="37.98 35.21 37.69 36.02 38.26 36.02 37.98 35.21"/>
        <path class="cls-1" d="M22.82,35.81c0-.41-.11-.66-.38-.66s-.38.25-.38.66.12.66.38.66.38-.26.38-.66Z"/>
        <polygon class="cls-1" points="22.23 41.47 22.23 41.21 21.3 41.21 21.3 40.68 22.15 40.68 22.15 40.43 21.3 40.43 21.3 39.95 22.23 39.95 22.23 39.69 20.99 39.69 20.99 41.47 22.23 41.47"/>
        <path class="cls-1" d="M23.18,41.5c.43,0,.7-.23.7-.7v-1.11h-.31v1.1c0,.31-.17.44-.39.44s-.4-.13-.4-.44v-1.1h-.31v1.11c0,.46.28.7.71.7Z"/>
        <path class="cls-1" d="M24.5,40.75h.41l.35.71h.33l-.37-.74c.22-.07.36-.25.36-.5,0-.32-.23-.53-.57-.53h-.82v1.78h.31v-.71ZM24.5,39.94h.47c.18,0,.29.1.29.28s-.12.28-.29.28h-.47v-.56Z"/>
        <path class="cls-1" d="M26.59,41.5c.51,0,.85-.36.85-.92s-.34-.92-.85-.92-.85.36-.85.92.35.92.85.92ZM26.59,39.92c.33,0,.53.26.53.66s-.2.66-.53.66-.53-.26-.53-.66.2-.66.53-.66Z"/>
        <path class="cls-1" d="M27.98,40.82h.49c.34,0,.59-.22.59-.56s-.25-.57-.59-.57h-.8v1.78h.31v-.65ZM27.98,39.94h.44c.2,0,.32.12.32.31s-.12.31-.32.31h-.44v-.62Z"/>
        <polygon class="cls-1" points="30.51 41.21 29.58 41.21 29.58 40.68 30.42 40.68 30.42 40.43 29.58 40.43 29.58 39.95 30.51 39.95 30.51 39.69 29.27 39.69 29.27 41.47 30.51 41.47 30.51 41.21"/>
        <path class="cls-1" d="M31.08,41.04h.74l.15.43h.33l-.65-1.78h-.39l-.65,1.78h.32l.15-.43ZM31.45,39.98l.28.81h-.57l.28-.81Z"/>
        <polygon class="cls-1" points="32.76 40.13 33.56 41.47 33.92 41.47 33.92 39.69 33.62 39.69 33.62 41.02 32.82 39.69 32.46 39.69 32.46 41.47 32.76 41.47 32.76 40.13"/>
        <path class="cls-1" d="M35.42,41.5c.43,0,.7-.23.7-.7v-1.11h-.31v1.1c0,.31-.17.44-.39.44s-.4-.13-.4-.44v-1.1h-.31v1.11c0,.46.28.7.71.7Z"/>
        <polygon class="cls-1" points="36.73 40.13 37.54 41.47 37.89 41.47 37.89 39.69 37.59 39.69 37.59 41.02 36.79 39.69 36.43 39.69 36.43 41.47 36.73 41.47 36.73 40.13"/>
        <rect class="cls-1" x="38.21" y="39.69" width=".31" height="1.78"/>
        <path class="cls-1" d="M39.6,41.5c.51,0,.85-.36.85-.92s-.34-.92-.85-.92-.85.36-.85.92.35.92.85.92ZM39.6,39.92c.33,0,.53.26.53.66s-.2.66-.53.66-.53-.26-.53-.66.2-.66.53-.66Z"/>
        <polygon class="cls-1" points="40.98 40.13 41.79 41.47 42.14 41.47 42.14 39.69 41.84 39.69 41.84 41.02 41.04 39.69 40.69 39.69 40.69 41.47 40.98 41.47 40.98 40.13"/>
      </g>
      <g>
        <path class="cls-1" d="M22.3,28.29h1.84c-.14,1.25-.9,1.66-1.69,1.66-1.14,0-1.86-.99-1.86-2.4s.71-2.4,1.89-2.4c.84,0,1.44.6,1.56,1.39h1.18c-.18-1.34-1.07-2.36-2.74-2.36-1.77,0-3.06,1.32-3.06,3.37s1.24,3.37,2.84,3.37c.98,0,1.63-.41,2.03-1.08v.96h.98v-3.38h-2.97v.88Z"/>
        <path class="cls-1" d="M28.82,24.3h-2.41v6.49h2.41c1.82,0,3.09-1.3,3.09-3.25s-1.27-3.25-3.09-3.25ZM28.74,29.86h-1.21v-4.62h1.21c1.15,0,1.99.8,1.99,2.31s-.84,2.31-1.99,2.31Z"/>
        <path class="cls-1" d="M35.69,24.3h-2.92v6.49h1.12v-2.36h1.8c1.24,0,2.14-.8,2.14-2.06s-.9-2.07-2.14-2.07ZM35.49,27.5h-1.6v-2.27h1.6c.73,0,1.18.44,1.18,1.14s-.45,1.13-1.18,1.13Z"/>
        <path class="cls-1" d="M42.36,28.08c.81-.25,1.31-.92,1.31-1.83,0-1.18-.83-1.95-2.07-1.95h-3v6.49h1.12v-2.61h1.49l1.28,2.61h1.21l-1.35-2.72ZM41.44,27.28h-1.72v-2.06h1.72c.64,0,1.08.36,1.08,1.03s-.44,1.03-1.08,1.03Z"/>
      </g>
    </g>
  </g>
</svg>