<?xml version="1.0" encoding="UTF-8"?>
<svg id="Layer_2" data-name="Layer 2" xmlns="http://www.w3.org/2000/svg" viewBox="0 0 159.95 159.95">
  <defs>
    <style>
      .cls-1 {
        fill: #fff;
      }
    </style>
  </defs>
  <g id="Layer_1-2" data-name="Layer 1">
    <g>
      <path class="cls-1" d="M31.02,36.32l1.86-1.26c.83-.56,1.52-.64,2.08-.12.83.77.46,1.94-.51,2.98-1.05,1.12-2.33,1.44-3.45.67l-1.34,1.44c1.6,1.38,3.98,1.18,5.99-.97,1.86-1.99,2.19-4.2.61-5.67-1.25-1.17-2.72-1.03-4.33.07l-1.99,1.36c-.86.6-1.55.74-2.13.2-.68-.63-.49-1.7.42-2.67.97-1.04,2.01-1.17,2.92-.55l1.34-1.44c-1.53-1.27-3.6-1.06-5.38.84-1.76,1.88-1.99,4.05-.6,5.35,1.59,1.48,3.18.69,4.52-.22Z"/>
      <path class="cls-1" d="M44.37,31.38c2.6-1.87,3.02-4.98.95-7.85-2.08-2.88-5.15-3.45-7.75-1.58-2.58,1.86-3.04,4.95-.95,7.85,2.07,2.87,5.16,3.44,7.75,1.58ZM38.55,23.3c1.7-1.23,3.66-.64,5.14,1.41,1.46,2.02,1.41,4.09-.29,5.32-1.69,1.22-3.68.62-5.14-1.41-1.48-2.05-1.4-4.1.29-5.32Z"/>
      <path class="cls-1" d="M55.06,25.24c2.31-1.03,3.47-3.06,2.72-5.81l-1.84.82c.4,1.49-.17,2.84-1.55,3.46-1.77.79-3.59-.27-4.58-2.49-1-2.23-.59-4.27,1.2-5.08,1.39-.62,2.66-.08,3.51,1.15l1.84-.82c-1.21-2.07-3.45-3-6.03-1.84-2.73,1.22-3.82,4.2-2.38,7.42,1.44,3.23,4.36,4.42,7.12,3.18Z"/>
      <path class="cls-1" d="M66.16,13.38c-.2-1.18.37-2.07,1.61-2.28,1.07-.18,1.93.31,2.12,1.4.23,1.37-1.14,2.5-2.43,3.8-1.25,1.26-2.43,2.7-2.1,4.7l.07.39,7.89-1.33-.27-1.59-5.55.93c.18-1.33,1.88-2.51,3.13-3.95.84-.97,1.44-2.07,1.21-3.4-.33-1.97-2.11-2.99-4.29-2.62-2.37.4-3.75,2.09-3.3,4.27l1.91-.32Z"/>
      <polygon class="cls-1" points="82.64 19.97 84.58 20.11 85.26 10.55 88.83 10.8 88.94 9.19 79.87 8.55 79.75 10.16 83.31 10.41 82.64 19.97"/>
      <polygon class="cls-1" points="93.4 21.53 95.28 22.01 96.35 17.85 102.01 12.18 99.98 11.66 95.84 15.88 94.26 10.19 92.23 9.67 94.47 17.37 93.4 21.53"/>
      <path class="cls-1" d="M102.8,24.58l1.72-3.7,2.82,1.31c1.95.9,3.93.31,4.85-1.67.93-2,.09-3.89-1.85-4.79l-4.57-2.12-4.71,10.16,1.76.81ZM106.84,15.87l2.51,1.17c1.15.53,1.53,1.54,1.02,2.64-.5,1.07-1.52,1.45-2.66.92l-2.51-1.16,1.65-3.56Z"/>
      <polygon class="cls-1" points="117.3 33.16 118.23 31.84 113.44 28.47 115.38 25.71 119.74 28.77 120.64 27.49 116.28 24.43 118.02 21.96 122.81 25.32 123.74 24 117.37 19.52 110.92 28.68 117.3 33.16"/>
      <rect class="cls-1" x="121.52" y="33.87" width="11.2" height="1.94" transform="translate(10.9 97.01) rotate(-43.47)"/>
      <rect class="cls-1" x="125.2" y="38.11" width="11.2" height="1.94" transform="translate(4.19 90.13) rotate(-38.59)"/>
      <polygon class="cls-1" points="20.08 101.03 21.63 100.57 19.03 91.85 17.48 92.31 18.5 95.73 9.31 98.46 9.87 100.33 19.06 97.6 20.08 101.03"/>
      <polygon class="cls-1" points="20.04 111.71 21.45 111.02 19.12 106.23 21.84 104.91 24.4 110.18 25.85 109.47 22.44 102.46 12.37 107.36 15.78 114.37 17.23 113.66 14.67 108.4 17.71 106.92 20.04 111.71"/>
      <path class="cls-1" d="M25.52,116.78c-.41-.96-.42-1.67.23-2.13.76-.54,1.77-.14,2.54.94.83,1.16.75,2.2-.04,2.98l1.14,1.6c1.55-1.24,1.76-3.32.24-5.44-1.5-2.1-3.58-2.75-5.13-1.65-1.77,1.26-1.31,2.98-.68,4.47l.87,2.07c.39.92.33,1.62-.3,2.06-.92.66-2,.07-2.82-1.09-.89-1.25-.95-2.57.02-3.52l-1.14-1.6c-1.67,1.29-1.94,3.67-.23,6.06,1.58,2.21,3.68,2.98,5.44,1.72,1.39-.99,1.54-2.46.79-4.26l-.94-2.22Z"/>
      <polygon class="cls-1" points="38.16 127.06 39.31 125.92 32.89 119.46 31.74 120.6 34.26 123.13 27.46 129.89 28.83 131.27 35.63 124.52 38.16 127.06"/>
      <polygon class="cls-1" points="41.51 129.62 46.25 133.06 47.19 131.75 40.89 127.18 34.32 136.24 40.62 140.81 41.57 139.51 36.83 136.07 38.81 133.34 43.12 136.46 44.05 135.19 39.73 132.07 41.51 129.62"/>
      <path class="cls-1" d="M52.93,134.81l-3.74-1.83-4.93,10.06,3.74,1.83c2.82,1.38,5.77.33,7.25-2.68,1.47-3,.5-6-2.32-7.38ZM53.43,141.3c-1.14,2.33-3.06,2.94-4.85,2.06l-1.87-.92,3.51-7.16,1.87.92c1.78.88,2.49,2.75,1.34,5.09Z"/>
      <path class="cls-1" d="M69.78,146.08c-.25.64-.6,1.25-1.01,1.74l-1.48-2.72c1.3-.42,2.43-1.1,2.71-2.43.25-1.21-.42-2.46-2.32-2.85-1.87-.38-3.21.43-3.49,1.8-.22,1.05.23,1.91.69,2.77-2.15.62-2.97,1.64-3.22,2.87-.39,1.91,1.05,3.31,2.98,3.7,1.52.31,2.6.06,3.52-.53l.66,1.23,2.29.47-1.53-2.82c.87-.79,1.56-1.71,1.96-2.86l-1.76-.36ZM66.04,141.97c.14-.67.73-.99,1.36-.86.61.13,1.02.59.87,1.32-.16.75-.9,1.29-1.58,1.54-.35-.66-.79-1.34-.65-2ZM65.17,149.41c-1.07-.22-1.78-.97-1.56-2.01.17-.8.79-1.46,1.88-1.85l1.9,3.48c-.71.41-1.37.55-2.22.38Z"/>
      <path class="cls-1" d="M82.42,141.38l-3.61,11.37,2.01-.08.83-2.73,4.67-.2,1.06,2.65,2.05-.09-4.58-11.02-2.43.1ZM82.14,148.38l1.58-5.19,2.01,5.04-3.58.15Z"/>
      <polygon class="cls-1" points="97.58 139.37 88.65 141.09 88.95 142.68 92.45 142.01 94.26 151.41 96.18 151.04 94.37 141.64 97.89 140.96 97.58 139.37"/>
      <polygon class="cls-1" points="107.51 135.8 98.98 138.98 99.54 140.49 102.89 139.25 106.23 148.23 108.06 147.54 104.71 138.57 108.07 137.31 107.51 135.8"/>
      <polygon class="cls-1" points="115.76 142.23 114.08 139.3 118.71 136.65 117.93 135.29 113.3 137.94 111.8 135.31 116.88 132.4 116.08 131 109.32 134.87 114.88 144.59 121.64 140.72 120.84 139.32 115.76 142.23"/>
      <path class="cls-1" d="M125.56,129.77l-2.15,1.08c-.93.48-1.63.53-2.14-.09-.59-.72-.26-1.75.77-2.59,1.1-.9,2.14-.89,2.97-.16l1.52-1.25c-1.34-1.46-3.43-1.53-5.44.12-1.99,1.63-2.51,3.75-1.3,5.22,1.38,1.68,3.06,1.11,4.51.38l2.01-1.01c.9-.45,1.59-.43,2.08.16.72.88.2,1.99-.9,2.89-1.19.97-2.5,1.12-3.51.21l-1.52,1.25c1.4,1.58,3.79,1.69,6.06-.17,2.1-1.72,2.72-3.87,1.35-5.54-1.08-1.32-2.56-1.38-4.3-.5Z"/>
      <polygon class="cls-1" points="132.81 117.57 131.6 116.5 125.58 123.32 126.79 124.39 129.15 121.72 136.34 128.06 137.63 126.59 130.44 120.25 132.81 117.57"/>
      <polygon class="cls-1" points="141.91 118.28 139.05 116.48 141.89 111.97 140.56 111.14 137.73 115.65 135.17 114.04 138.28 109.08 136.92 108.22 132.77 114.81 142.25 120.77 146.4 114.18 145.03 113.32 141.91 118.28"/>
      <path class="cls-1" d="M146.8,99.5c-3.09-1.27-6.01-.1-7.2,2.8l-1.58,3.85,10.36,4.25,1.58-3.85c1.19-2.9-.05-5.78-3.16-7.05ZM148.41,106.07l-.79,1.92-7.37-3.02.79-1.92c.75-1.83,2.58-2.66,4.99-1.67,2.4.98,3.13,2.86,2.38,4.69Z"/>
      <path class="cls-1" d="M79.97,0C35.88,0,0,35.88,0,79.97s35.88,79.97,79.97,79.97,79.97-35.88,79.97-79.97S124.07,0,79.97,0ZM28.92,79.97c0-13.92,5.61-26.55,14.67-35.77,4.62,4.36,9.88,7.8,15.57,10.23-2.13,7.58-3.35,16.29-3.35,25.54,0,.17,0,.34,0,.52h-26.88c0-.17-.01-.34-.01-.52ZM131.01,80.49h-25.32c0-.17,0-.34,0-.52,0-9.51-1.28-18.44-3.5-26.17,5.15-2.38,9.92-5.61,14.16-9.6,9.06,9.22,14.67,21.85,14.67,35.77,0,.17-.01.34-.01.52ZM61.07,105.12c-1.88-6.74-3.03-14.43-3.23-22.63h45.83c-.19,8.23-1.35,15.95-3.22,22.72-12.6-5.05-26.76-5.07-39.37-.08ZM99.89,107.11c-4.06,13.28-11.01,22.45-19.02,23.74-8.11-1.3-15.14-10.5-19.25-23.83,5.97-2.39,12.4-3.66,19.02-3.66s13.21,1.29,19.24,3.74ZM57.81,79.97c0-9,1.15-17.46,3.17-24.81,5.98,2.29,12.4,3.5,19,3.5,7.13,0,14.05-1.4,20.43-4.07,2.09,7.48,3.29,16.14,3.29,25.37,0,.17,0,.34,0,.52h-45.88c0-.17,0-.34,0-.52ZM61.53,53.23c4.09-13.5,11.17-22.83,19.35-24.14,7.97,1.29,14.89,10.38,18.96,23.57-6.2,2.62-12.93,4-19.87,4-6.41,0-12.64-1.19-18.44-3.43ZM101.62,51.88c-3.34-10.54-8.48-18.6-14.58-22.45,10.71,1.49,20.36,6.31,27.88,13.39-3.99,3.75-8.47,6.8-13.3,9.07ZM59.73,52.5c-5.37-2.32-10.33-5.58-14.7-9.69,8.03-7.55,18.48-12.54,30.06-13.65-6.47,3.81-11.92,12.24-15.36,23.34ZM55.84,82.49c.2,8.47,1.42,16.41,3.42,23.39-5.53,2.43-10.72,5.84-15.31,10.24-8.73-8.7-14.34-20.52-14.98-33.63h26.86ZM59.84,107.79c3.44,10.93,8.85,19.23,15.25,23-11.39-1.09-21.7-5.93-29.68-13.28,4.28-4.09,9.16-7.36,14.43-9.71ZM101.68,107.89c4.91,2.22,9.48,5.23,13.53,8.97-7.56,7.23-17.32,12.16-28.17,13.67,6.13-3.87,11.3-12.01,14.64-22.64ZM102.25,105.98c2-7,3.22-14.98,3.42-23.49h25.3c-.62,12.78-5.98,24.33-14.33,32.96-4.35-4.02-9.22-7.18-14.38-9.48ZM79.97,2c43,0,77.97,34.98,77.97,77.97,0,.17-.01.34-.01.52h-24.92c0-.17.01-.34.01-.52,0-28.29-22.25-51.47-50.17-52.97v-.08c-.33,0-.65.03-.97.05-.63-.02-1.27-.05-1.91-.05-.23,0-.46.01-.69.02-.12,0-.24-.02-.36-.02v.03c-28.77.56-52,24.12-52,53.02,0,.17.01.34.01.52H2.01c0-.17-.01-.34-.01-.52C2,36.98,36.98,2,79.97,2ZM79.97,157.95C37.82,157.95,3.4,124.32,2.06,82.49h24.92c1.3,27.74,24.01,49.96,51.94,50.51v.03c.12,0,.23-.01.35-.02.23,0,.46.02.7.02.64,0,1.27-.03,1.91-.05.32.02.65.05.97.05v-.08c13.09-.7,24.92-6.18,33.81-14.71.03.03.06.05.09.08l1.41-1.41s-.05-.05-.08-.08c8.7-8.99,14.26-21.03,14.88-34.34h24.92c-1.34,41.83-35.76,75.46-77.91,75.46Z"/>
    </g>
  </g>
</svg>