<?xml version="1.0" encoding="UTF-8"?>
<svg id="Layer_2" data-name="Layer 2" xmlns="http://www.w3.org/2000/svg" viewBox="0 0 205.37 205.41">
  <defs>
    <style>
      .cls-1 {
        fill: #fff;
      }
    </style>
  </defs>
  <g id="Layer_1-2" data-name="Layer 1">
    <g>
      <g>
        <path class="cls-1" d="M188.47,64.1l.99,2.57c-1.14.65-1.32,1.93-.8,3.28.47,1.23,1.3,2.07,2.29,1.69.67-.26.83-.9.71-1.72l-.33-2.36c-.28-1.99-.29-4.02,2.06-4.92,2.07-.79,4.23.57,5.31,3.38,1.05,2.74.31,5.03-1.79,5.97l-.99-2.57c.87-.49,1.19-1.42.7-2.7-.45-1.18-1.3-1.82-2.12-1.5-.74.28-.82.99-.7,1.85l.4,2.6c.33,2.15-.19,3.81-2.12,4.56-2.38.92-4.48-.67-5.56-3.47-1.19-3.11-.34-5.69,1.96-6.65Z"/>
        <path class="cls-1" d="M201.58,75.52l.69,2.65-12.19,3.19-.69-2.65,12.19-3.19Z"/>
        <path class="cls-1" d="M197.23,83.56c3.97-.55,6.82,1.65,7.3,5.09.49,3.53-1.41,5.46-3.83,6.09l-.39-2.82c1.38-.43,2.08-1.63,1.9-2.95-.28-2-2.05-2.97-4.6-2.62-2.53.35-3.99,1.77-3.72,3.71.17,1.25.91,2.38,2.9,2.43l-.42-3.03,2.05-.28.81,5.85-6.65.92-.32-2.3,1.75-.24c-1.37-.59-2.25-1.67-2.5-3.49-.43-3.08,1.76-5.82,5.71-6.37Z"/>
        <path class="cls-1" d="M205.37,99.9l-.07,2.97-8.59,4.93,8.46.21-.07,2.59-12.6-.32.07-2.88,8.73-5.02-8.6-.22.06-2.59,12.6.32Z"/>
        <path class="cls-1" d="M202.28,127.24l-.69,2.65-12.2-3.18.69-2.65,12.2,3.18Z"/>
        <path class="cls-1" d="M200.21,134.9l-1.08,2.77-9.75,1.73,7.89,3.06-.94,2.42-11.75-4.57,1.04-2.69,9.92-1.76-8.02-3.12.94-2.42,11.75,4.57Z"/>
        <path class="cls-1" d="M183.23,155.79c3.22,2.42,3.73,5.91,1.53,8.83-2.2,2.92-5.69,3.4-8.91.98-3.19-2.4-3.73-5.91-1.53-8.83,2.2-2.92,5.72-3.38,8.91-.98ZM177.56,163.33c2.14,1.61,4.11,1.52,5.33-.11,1.22-1.62.78-3.56-1.36-5.17-2.12-1.59-4.12-1.5-5.34.12-1.22,1.62-.74,3.56,1.37,5.15Z"/>
        <path class="cls-1" d="M177.45,173.17l-2.15,2.05-9.57-2.56,5.85,6.12-1.87,1.79-8.71-9.11,2.08-1.99,9.74,2.6-5.95-6.22,1.87-1.79,8.71,9.11Z"/>
        <path class="cls-1" d="M162.2,178.63c2.28,3.3,1.56,6.86-1.21,8.77-2.85,1.96-5.63,1.28-7.31-.8l2.31-1.59c1.19,1.21,2.53,1.25,3.67.47,1.57-1.08,1.66-3.11.2-5.23-1.45-2.1-3.4-2.75-4.96-1.67-1.05.72-1.68,2.06-.91,3.69l-2.34,1.62c-1.44-2.97-.51-5.55,1.92-7.23,2.79-1.92,6.36-1.3,8.63,1.99Z"/>
        <path class="cls-1" d="M151.83,192.84l-8.14,4-1-2.04,5.69-2.79-1.24-2.52-5.12,2.51-.98-1.99,5.12-2.51-1.34-2.73-5.69,2.79-1-2.04,8.14-4,5.55,11.31Z"/>
        <path class="cls-1" d="M136.94,193.15l-14.6,4.27-.6-2.06,14.6-4.27.6,2.06Z"/>
        <path class="cls-1" d="M117.44,196.42l.8,7.82-2.74.28-.8-7.84c-.19-1.83-1.36-2.49-2.7-2.35-1.32.14-2.34,1.02-2.15,2.84l.8,7.84-2.74.28-.8-7.82c-.33-3.24,1.48-5.14,4.65-5.47,3.17-.32,5.35,1.17,5.68,4.41Z"/>
        <path class="cls-1" d="M103.38,196.83l-2.75-.14c-.13-1.31-1.23-1.99-2.67-2.06-1.31-.07-2.41.35-2.47,1.41-.04.72.48,1.12,1.28,1.35l2.29.66c1.94.55,3.79,1.36,3.66,3.88-.11,2.21-2.24,3.64-5.24,3.49-2.93-.15-4.73-1.75-4.74-4.06l2.75.14c.09,1,.82,1.66,2.18,1.73,1.26.07,2.19-.45,2.23-1.33.04-.79-.57-1.15-1.41-1.39l-2.54-.69c-2.1-.57-3.41-1.72-3.31-3.79.13-2.55,2.43-3.82,5.43-3.67,3.33.17,5.34,2,5.29,4.49Z"/>
        <path class="cls-1" d="M87.35,204.22l-8.9-1.74.44-2.22,6.21,1.22.54-2.75-5.6-1.1.43-2.17,5.6,1.09.58-2.98-6.22-1.22.44-2.23,8.9,1.74-2.42,12.36Z"/>
        <path class="cls-1" d="M62.64,197.23l-8.2-3.89.97-2.05,5.72,2.72,1.2-2.54-5.16-2.45.95-2,5.15,2.45,1.3-2.75-5.72-2.71.97-2.05,8.2,3.89-5.4,11.38Z"/>
        <path class="cls-1" d="M50.7,191.34l-2.47-1.65,2.94-9.86-7.96,6.51-2.47-1.65,10.5-8.15,2.95,1.97-3.49,12.82Z"/>
        <path class="cls-1" d="M37.21,181.8l-6.74-6.07,1.52-1.68,4.71,4.24,1.88-2.09-4.24-3.82,1.48-1.65,4.24,3.82,2.04-2.26-4.71-4.24,1.52-1.69,6.74,6.07-8.43,9.36Z"/>
        <path class="cls-1" d="M26.9,172.03l-3.89-4.7c-1.68-2.02-1.39-4.27.34-5.71,1.32-1.09,2.93-1.29,4.36-.44l2.34-5.1,1.85,2.23-2.25,4.76,1.53,1.84,3.67-3.04,1.75,2.11-9.7,8.04ZM25.11,163.74c-.89.74-.8,1.71-.19,2.45l1.93,2.33,2.65-2.19-1.93-2.33c-.61-.73-1.57-.99-2.46-.25Z"/>
        <path class="cls-1" d="M22.59,153.41l-4.29,7.92-1.51-2.47,3.03-5.33-6.12.28-1.51-2.47,8.98-.23,4.12-2.52,1.42,2.32-4.1,2.51Z"/>
        <path class="cls-1" d="M10.22,147.86l-1.03-2.63,7.88-5.25-9.41,1.35-.97-2.46,7.8-5.46-9.33,1.55-1.03-2.63,12.87-1.7,1.1,2.8-7.67,5.4,9.29-1.26,1.1,2.8-10.6,7.5Z"/>
        <path class="cls-1" d="M3.04,127.54l-.53-2.68,5.01-.99-.96-4.86-5.01.99-.53-2.67,12.36-2.43.52,2.67-5.12,1.01.96,4.85,5.12-1.01.53,2.68-12.36,2.43Z"/>
        <path class="cls-1" d="M.42,111.81l-.42-9.06,2.27-.11.29,6.33,2.8-.13-.26-5.7,2.21-.1.26,5.7,3.04-.14-.29-6.33,2.27-.1.42,9.06-12.59.58Z"/>
        <path class="cls-1" d="M.12,97.62l.6-6.07c.26-2.62,2.06-3.99,4.3-3.77,1.7.17,2.98,1.18,3.38,2.79l5.27-1.92-.29,2.88-4.97,1.75-.24,2.38,4.75.47-.27,2.72L.12,97.62ZM4.75,90.52c-1.15-.11-1.78.64-1.88,1.59l-.3,3.01,3.42.34.3-3.01c.09-.95-.4-1.81-1.55-1.93Z"/>
        <path class="cls-1" d="M2.06,82.41l2.18-8.81,2.2.54-1.52,6.15,2.73.67,1.37-5.54,2.15.53-1.37,5.54,2.95.73,1.52-6.15,2.2.54-2.18,8.81-12.23-3.02Z"/>
        <path class="cls-1" d="M16.35,61.21c-.79-.39-1.09-1.35-.71-2.12.39-.79,1.34-1.12,2.13-.72.79.4,1.11,1.36.72,2.15-.39.77-1.35,1.09-2.14.7Z"/>
        <path class="cls-1" d="M27.01,46.8l1.76-2.12c1.12.68,2.33.21,3.25-.9.84-1.01,1.17-2.14.35-2.82-.55-.46-1.19-.29-1.85.22l-1.9,1.44c-1.6,1.22-3.36,2.22-5.3.61-1.7-1.42-1.57-3.97.35-6.28,1.87-2.26,4.23-2.73,6.09-1.36l-1.76,2.12c-.85-.52-1.82-.34-2.7.71-.8.97-.95,2.02-.27,2.58.61.51,1.26.23,1.95-.3l2.07-1.62c1.72-1.33,3.42-1.7,5.02-.38,1.97,1.63,1.61,4.24-.31,6.55-2.13,2.56-4.8,3.08-6.76,1.55Z"/>
        <path class="cls-1" d="M30.56,29.78l1.97-1.9,8.74,9.07-1.97,1.9-8.74-9.07Z"/>
        <path class="cls-1" d="M36.36,24.29l2.37-1.8,9.22,3.63-5.12-6.74,2.07-1.57,7.62,10.04-2.3,1.74-9.38-3.69,5.2,6.86-2.07,1.57-7.62-10.04Z"/>
        <path class="cls-1" d="M52.11,20.59c-1.88-3.54-.79-6.98,2.28-8.61,3.15-1.67,5.62-.56,7.04,1.5l-2.51,1.34c-.87-1.15-2.25-1.4-3.42-.77-1.78.95-2.09,2.94-.88,5.22,1.2,2.26,3.03,3.14,4.77,2.22,1.11-.59,1.92-1.67,1.29-3.56l-2.7,1.43-.97-1.83,5.21-2.77,3.15,5.93-2.05,1.09-.83-1.56c-.08,1.49-.8,2.68-2.42,3.55-2.75,1.46-6.07.35-7.95-3.18Z"/>
        <path class="cls-1" d="M64.47,7.49l2.57-.93,3.51,9.72,5.15-1.86.77,2.13-7.72,2.79-4.28-11.85Z"/>
        <path class="cls-1" d="M76.61,3.43l8.86-1.94.48,2.22-6.19,1.35.6,2.74,5.58-1.22.47,2.16-5.58,1.22.65,2.97,6.19-1.35.48,2.22-8.86,1.94-2.69-12.31Z"/>
        <path class="cls-1" d="M101.27,8.63l2.75.12c.14,1.3,1.25,1.98,2.69,2.04,1.31.06,2.41-.37,2.46-1.43.03-.72-.49-1.12-1.29-1.33l-2.3-.64c-1.94-.53-3.8-1.33-3.69-3.85.09-2.21,2.21-3.66,5.21-3.53,2.93.12,4.74,1.71,4.77,4.02l-2.75-.12c-.1-1-.83-1.66-2.2-1.72-1.26-.05-2.18.47-2.22,1.35-.03.79.58,1.14,1.42,1.38l2.55.67c2.1.56,3.42,1.7,3.34,3.76-.11,2.55-2.4,3.84-5.4,3.72-3.33-.14-5.36-1.96-5.33-4.44Z"/>
        <path class="cls-1" d="M116.94,1.14l2.7.42-1.93,12.45-2.7-.42,1.93-12.45Z"/>
        <path class="cls-1" d="M122.59,8.35c1.08-3.87,4.23-5.61,7.58-4.67,3.43.96,4.46,3.46,4.07,5.93l-2.74-.76c.16-1.43-.67-2.56-1.95-2.92-1.94-.54-3.54.7-4.23,3.18-.69,2.46.04,4.36,1.93,4.89,1.21.34,2.55.11,3.39-1.69l-2.95-.82.56-2,5.69,1.58-1.8,6.47-2.24-.62.47-1.7c-1.09,1.02-2.43,1.4-4.2.91-3-.83-4.64-3.93-3.57-7.78Z"/>
        <path class="cls-1" d="M140.79,7.36l2.7,1.24,1.13,9.84,3.54-7.68,2.36,1.08-5.27,11.44-2.62-1.21-1.16-10.01-3.6,7.81-2.35-1.08,5.27-11.44Z"/>
        <path class="cls-1" d="M151.99,19.76l4.59,2.9-1.19,1.89-4.59-2.9,1.19-1.89Z"/>
        <path class="cls-1" d="M159.92,25.07c2.59-3.09,6.1-3.41,8.9-1.06,2.8,2.35,3.09,5.86.5,8.95-2.57,3.06-6.1,3.41-8.9,1.06-2.8-2.35-3.07-5.89-.5-8.95ZM167.14,31.14c1.73-2.06,1.73-4.02.17-5.33-1.56-1.31-3.51-.97-5.23,1.08-1.7,2.03-1.72,4.04-.16,5.34,1.56,1.31,3.52.93,5.22-1.09Z"/>
        <path class="cls-1" d="M176.96,31.77l1.94,2.25-3.06,9.42,6.41-5.52,1.69,1.97-9.55,8.21-1.88-2.18,3.11-9.58-6.52,5.61-1.69-1.96,9.55-8.21Z"/>
        <path class="cls-1" d="M187.09,57.41c.78-.4,1.74-.08,2.13.68.4.78.11,1.75-.67,2.15-.79.4-1.75.09-2.16-.69-.4-.77-.08-1.74.7-2.14Z"/>
      </g>
      <g>
        <path class="cls-1" d="M129.28,130.67h-38.49v-55.93h55.99v38.39c0,9.69-7.83,17.55-17.5,17.55h0Z"/>
        <path class="cls-1" d="M69.76,130.67h-11.18v-55.93h27.76v39.31c0,9.18-7.42,16.62-16.58,16.62h0Z"/>
      </g>
    </g>
  </g>
</svg>