<svg xmlns="http://www.w3.org/2000/svg" viewBox="0 0 575.68 443.51"><defs><style>.cls-1{fill:#fff}</style></defs><g id="Layer_2" data-name="Layer 2"><g id="Layer_1-2" data-name="Layer 1"><path class="cls-1" d="M47.52 99.61h24.86v74.94h29.35V0h372v174.55H503V99.67h25.18v179.11h-24.81c-.07-1.22-.2-2.44-.2-3.72 0-23-.06-46.05.07-69 0-2.82-.64-3.79-3.66-3.79q-211.74.11-423.48.07h-3.47v76.42H47.52zm82.21-72v146.88H446V27.61z"/><path class="cls-1" d="M343.2 322.65c-6.55 0-13 .13-19.52-.13-.84 0-1.87-1.54-2.45-2.57q-14.53-25.14-29-50.29a6.54 6.54 0 00-2.18-2.44v55.23h-20.51v-97.74c6.48 0 12.78-.13 19.07.13 1 .06 2.18 1.41 2.83 2.44q14.64 25.23 29 50.6a8 8 0 002.25 2.7V225h20.51zm42.32-40.4V303h39.24v19.45h-60.63v-97.61h60.57V244h-39.05v18.6h36v19.59c-11.92.06-23.86.06-36.13.06zm-234.66-57.54h21.25v78.35H211v19.46h-60.14zM26.07 143.86v89.58H0v-89.58zm523.66.77h25.95v88.94h-25.95zm-322.9 80.21h20.87v97.42h-20.87zm133-175.2h64.93v20.62h-41.87v20.1h38.79v20.55h-38.79v22.67H425v20.74c-1 .07-1.86.2-2.76.2-19.72 0-39.37-.07-59.08.06-2.7 0-3.41-.77-3.41-3.4q.1-49.14.07-98.2a29.14 29.14 0 01.01-3.34zm-15.15 0v20.75h-43.1V90h39.5v20.87h-39.5v43.35h-22.86V49.58c21.9.06 43.73.06 65.96.06zM174 133.77h41.67V154h-64V49.84H174zm81.41 20.62H233V49.58h22.42zm89.43 230.33h-7.55v10.4h7.39a2.06 2.06 0 002.09-2.08v-6.26a2 2 0 00-1.93-2.06z"/><path class="cls-1" d="M446.08 223.68v119.07H129.41V223.68H102v147.07h27.55v72.76h317.9v-72.95h26.2V223.68zm-259.95 156q-5.13 16.86-10.24 33.72a1.12 1.12 0 01-1.33 1c-2.47-.06-4.94 0-7.45 0l-11.31-37.21h8.83c2.19 7.33 4.39 14.71 6.59 22.09h.2l6.65-22.13h8.81c-.26.85-.5 1.72-.75 2.55zm31 4.94h-15.79v7.28H215v7.62h-13.69v7.21h15.81v7.57h-24.3v-37.13h24.35zm37 29.73h-5.56c-1 0-2.09.25-2.83-.18s-1-1.52-1.48-2.33l-10.19-17.74-.57-.95v21.14h-8.48v-37.17a54.84 54.84 0 005.74 0c2-.22 3.08.52 4.06 2.31 3.29 6.07 6.81 12 10.24 18 .14.25.29.5.57 1v-21.24h8.5zm33.3-29.7h-8.91v29.64h-8.53V384.7h-9v-7.53h26.46zm33.4-6.55v28.07c0 4.94-3.24 8.18-8.18 8.18H302.3a7.62 7.62 0 01-8-7.77c-.06-9.62 0-19.24 0-28.86 0-.17 0-.35.05-.57h8.46V404c0 2.12.67 2.77 2.81 2.77H310a2.16 2.16 0 002.43-2.45v-27.16h8.5zm32.95 36.25h-6.62a1.16 1.16 0 01-1.17-.68c-2-3.31-4-6.59-5.91-9.92-.49-.85-1-1.29-2-1.12a5.14 5.14 0 01-.89 0v11.67h-8.49v-37.18h18.35c4.88 0 8.15 3.26 8.16 8.12v9.27a7.73 7.73 0 01-5.57 7.87c-.1 0-.2.11-.37.2l7.07 11.79zm33.65-.05h-24.26v-37.12h24.3v7.51h-15.82v7.22h13.69v7.61h-13.68v7.28h15.83zm34.48-7.3a7.58 7.58 0 01-7.28 7.35q-6 .14-12 0a7.56 7.56 0 01-7.22-7.12c-.09-1.64 0-3.29 0-5h8.48v2.26a2.1 2.1 0 002.28 2.32h5a2.12 2.12 0 002.24-2.28v-.71c0-2.22-.39-2.74-2.54-3.34-3.32-.91-6.64-1.79-9.94-2.72a11.53 11.53 0 01-2.14-.82 5.67 5.67 0 01-3.37-5.1c-.11-2.46-.13-4.94 0-7.41a7.56 7.56 0 017.35-7.27c3.94-.08 7.89-.09 11.83 0a7.6 7.6 0 017.33 7.39v4.77h-8.49v-2.28a2.13 2.13 0 00-2.29-2.33h-5a2.09 2.09 0 00-2.23 2.2v1.32a2.31 2.31 0 002 2.66c3.48.95 7 1.88 10.45 2.85a10.87 10.87 0 011.9.71 6 6 0 013.66 5.67c.07 2.28.07 4.58-.02 6.88z"/></g></g></svg>